<svg id="Group_24" data-name="Group 24" xmlns="http://www.w3.org/2000/svg" width="16.336" height="16.359" viewBox="0 0 16.336 16.359">
  <g id="Group_23" data-name="Group 23" transform="translate(0 0)">
    <path id="Path_32" data-name="Path 32" d="M0,7.64c.043-.3.068-.614.128-.912A7.978,7.978,0,0,1,5.5.435a7.865,7.865,0,0,1,6.2.345.6.6,0,0,0,.064.03c-.145.4-.286.8-.435,1.206a.761.761,0,0,1-.1-.047A6.892,6.892,0,1,0,8.117,15.04,1.957,1.957,0,0,0,8.59,15a1.068,1.068,0,0,0,.844-1.309,2.024,2.024,0,0,0-.3-.784,2.987,2.987,0,0,1-.4-1.586A2.818,2.818,0,0,1,11.463,8.6c1.015-.013,2.029,0,3.048,0,.388,0,.554-.166.546-.554a6.938,6.938,0,0,0-.644-2.805c-.021-.047-.043-.094-.051-.115.409-.141.806-.273,1.215-.414a6.81,6.81,0,0,1,.588,1.807A11.63,11.63,0,0,1,16.327,8.1a1.7,1.7,0,0,1-1.748,1.773c-.985,0-1.969,0-2.95,0a1.555,1.555,0,0,0-1.4,2.357,3.434,3.434,0,0,1,.49,1.739,2.318,2.318,0,0,1-2.1,2.319c-.047,0-.094.021-.141.03H7.652c-.043-.009-.081-.021-.124-.026-.379-.055-.759-.09-1.134-.166A8.161,8.161,0,0,1,.128,9.571c-.051-.3-.085-.61-.128-.912Z" transform="translate(0 0.044)"/>
    <path id="Path_33" data-name="Path 33" d="M110.637,1.2a6.109,6.109,0,0,1-.256,1.825,3.653,3.653,0,0,1-.929,1.522,1.418,1.418,0,0,1-1.492.379.215.215,0,0,0-.247.068q-4.1,4.1-8.2,8.2c-.043.043-.077.09-.111.128l-.9-.917c.021-.026.064-.072.107-.115q4.124-4.131,8.253-8.253a.241.241,0,0,0,.1-.23,1.453,1.453,0,0,1,.972-1.675,7.854,7.854,0,0,1,1.044-.281A3.6,3.6,0,0,0,110.637,1.2Z" transform="translate(-94.301 -1.147)"/>
    <path id="Path_34" data-name="Path 34" d="M164.221,64.613a1.211,1.211,0,1,1-1.2-1.215A1.212,1.212,0,0,1,164.221,64.613Z" transform="translate(-154.902 -60.693)"/>
    <path id="Path_35" data-name="Path 35" d="M89.8,98.917A1.105,1.105,0,0,1,90.908,97.8,1.115,1.115,0,1,1,89.8,98.917Z" transform="translate(-85.972 -93.629)"/>
    <path id="Path_36" data-name="Path 36" d="M59.9,173.744a1.053,1.053,0,1,1,1.049,1.061A1.056,1.056,0,0,1,59.9,173.744Z" transform="translate(-57.346 -165.335)"/>
  </g>
</svg>
