<svg width="16.088" height="16.091" viewBox="0 0 16.088 16.091">
    <path  d="M0,7.612c.042-.3.071-.6.122-.9A7.984,7.984,0,0,1,6.2.262a7.89,7.89,0,0,1,6.523,1.284.5.5,0,0,1,.239.537.447.447,0,0,1-.416.386.752.752,0,0,1-.42-.122,7.3,7.3,0,0,0-2.065-1,7.028,7.028,0,1,0,4.882,8.093,6.9,6.9,0,0,0-.617-4.516c-.025-.05-.05-.1-.076-.155a.5.5,0,1,1,.894-.462A7.927,7.927,0,0,1,15.9,6.327,8.029,8.029,0,0,1,10.1,15.851c-.462.122-.944.168-1.419.248a1.261,1.261,0,0,0-.134.029H7.543a.768.768,0,0,0-.1-.025,7.553,7.553,0,0,1-2.984-.827A7.932,7.932,0,0,1,.126,9.467C.067,9.165.042,8.858,0,8.552Z"/>
    <path  d="M119.712,71.406V69.089a2.265,2.265,0,0,1-2.023-.785,2.069,2.069,0,0,1-.491-1.377,2.1,2.1,0,0,1,.76-1.641,2.291,2.291,0,0,1,1.759-.5v-.995a.816.816,0,0,1,.025-.248.5.5,0,0,1,.487-.348.506.506,0,0,1,.47.374,1.21,1.21,0,0,1,.025.248c0,.315,0,.625,0,.961h.306a2.143,2.143,0,0,1,2.166,1.893,1.691,1.691,0,0,1,.017.252.492.492,0,0,1-.487.508.5.5,0,0,1-.516-.483,1.211,1.211,0,0,0-.344-.835,1.3,1.3,0,0,0-1.129-.323v2.3a2.231,2.231,0,0,1,2.094.894,2.066,2.066,0,0,1,.407,1.373,2.116,2.116,0,0,1-.806,1.574,2.316,2.316,0,0,1-1.708.47v.978a.973.973,0,0,1-.025.248.5.5,0,0,1-.52.365.492.492,0,0,1-.453-.462c-.008-.311,0-.617,0-.928V72.4c-.134,0-.252,0-.369,0a2.148,2.148,0,0,1-2.09-1.767,2.018,2.018,0,0,1-.038-.39.5.5,0,0,1,1-.021,1.14,1.14,0,0,0,.9,1.137A4.45,4.45,0,0,0,119.712,71.406Zm0-5.608a1.239,1.239,0,0,0-1.314.508,1.165,1.165,0,0,0,.013,1.272,1.244,1.244,0,0,0,1.3.487Zm1.024,5.583a1.226,1.226,0,0,0,1.347-.583,1.1,1.1,0,0,0-.088-1.255,1.2,1.2,0,0,0-1.259-.432Z" transform="translate(-112.279 -60.504)"/>
    <path  d="M314.4,61.616a.684.684,0,0,1-.6-.617.5.5,0,0,1,.5-.5.671.671,0,0,1,.609.625A.5.5,0,0,1,314.4,61.616Z" transform="translate(-300.629 -57.924)"/>
    <path  d="M142.809,124.7v2.262a1.237,1.237,0,0,1-1.3-.487,1.157,1.157,0,0,1-.013-1.272A1.244,1.244,0,0,1,142.809,124.7Z" transform="translate(-135.379 -119.405)" />
    <path  d="M201.4,205.84V203.57a1.209,1.209,0,0,1,1.259.432,1.094,1.094,0,0,1,.088,1.255A1.226,1.226,0,0,1,201.4,205.84Z" transform="translate(-192.946 -194.963)" />
</svg>
