<svg id="Group_68" data-name="Group 68" xmlns="http://www.w3.org/2000/svg" width="16.073" height="14.644" viewBox="0 0 16.073 14.644">
  <path id="Path_68" data-name="Path 68" d="M0,7.791c.049-.1.049-.2.1-.294a2.185,2.185,0,0,1,1.519-1.47.156.156,0,0,0,.147-.147A6.627,6.627,0,0,1,4.753,2.254L4.8,2.205A2.375,2.375,0,0,1,3.234,0h.931a1.7,1.7,0,0,0,.588,1.127,1.952,1.952,0,0,0,1.078.245A2.4,2.4,0,0,1,5.39,0h.931A1.535,1.535,0,0,0,6.86,1.078a1.613,1.613,0,0,0,.931.294,6.284,6.284,0,0,1,2.989.588,6.464,6.464,0,0,1,3.528,3.822.383.383,0,0,0,.2.2A2.071,2.071,0,0,1,14.5,10a.13.13,0,0,0-.147.147,6.46,6.46,0,0,1-5.1,4.361,6.569,6.569,0,0,1-7.5-4.263A.315.315,0,0,0,1.519,10,1.991,1.991,0,0,1,.049,8.33.048.048,0,0,1,0,8.281Zm6.468-3.92v.147a1.576,1.576,0,0,0,1.47,1.421,1.511,1.511,0,0,0,1.617-1.47A1.559,1.559,0,0,0,7.987,2.352a5.478,5.478,0,0,0-3.136.931,5.575,5.575,0,0,0-2.4,3.43c0,.1-.049.147-.245.147a1.438,1.438,0,0,0-.784.2,1.161,1.161,0,0,0,.686,2.107c.343,0,.343,0,.441.343A5.48,5.48,0,0,0,6.86,13.573a5.533,5.533,0,0,0,5.586-1.862,5.886,5.886,0,0,0,1.225-2.4c.049-.1.049-.147.2-.147h.343a1.137,1.137,0,0,0,.98-1.323,1.18,1.18,0,0,0-1.225-.98.269.269,0,0,1-.294-.2,5.773,5.773,0,0,0-2.4-3.43c-.245-.2-.539-.294-.833-.49l-.049.049a2.576,2.576,0,0,1,.147,1.715,2.327,2.327,0,0,1-.98,1.372,2.432,2.432,0,0,1-2.793,0A2.343,2.343,0,0,1,5.733,3.871Z" fill="#313131"/>
  <path id="Path_69" data-name="Path 69" d="M16.308,21.09a2.631,2.631,0,0,1-4.508,0,4.232,4.232,0,0,0,.784-.49,1.72,1.72,0,0,0,2.94,0A4.232,4.232,0,0,0,16.308,21.09Z" transform="translate(-6.018 -10.506)" fill="#313131"/>
  <path id="Path_70" data-name="Path 70" d="M10.736,15.1H9.805c-.1-.441-.294-.588-.637-.588-.294,0-.49.2-.637.588H7.6a1.355,1.355,0,0,1,.637-1.225,1.406,1.406,0,0,1,1.617-.1A1.367,1.367,0,0,1,10.736,15.1Z" transform="translate(-3.876 -6.922)" fill="#313131"/>
  <path id="Path_71" data-name="Path 71" d="M21.787,15.071h-.931a.539.539,0,0,0-.294-.49.923.923,0,0,0-.392-.1c-.294,0-.49.245-.539.588H18.7a1.478,1.478,0,0,1,.686-1.274A1.5,1.5,0,0,1,21,13.7,1.522,1.522,0,0,1,21.787,15.071Z" transform="translate(-9.537 -6.888)" fill="#313131"/>
</svg>
