<svg xmlns="http://www.w3.org/2000/svg" width="268.293" height="83.315" viewBox="0 0 268.293 83.315">
  <g id="Group_13" data-name="Group 13" transform="translate(-0.02 0.007)">
    <g id="Group_1" data-name="Group 1" transform="translate(6.853 33.873)">
      <path id="Path_1" data-name="Path 1" d="M15.16,94.544l-.221.662-.221.662a1.908,1.908,0,0,1-.662.386.5.5,0,0,1-.552-.221,3.168,3.168,0,0,1-.828-1.27,5.2,5.2,0,0,1-.276-1.656l.331-3.367a60.461,60.461,0,0,1,2.925-10.266l2.373-6.182,1.6-3.753c-.718-.055-1.214-.552-1.6-1.38A2.179,2.179,0,0,1,17.809,67a2.08,2.08,0,0,1,.607-1.049l.662-.331.773-.331,1.656-.442a4.161,4.161,0,0,1,.331-.718q.248-.331.662-.828a4.82,4.82,0,0,1,1.656-1.1,1.968,1.968,0,0,1,1.269.773l.883,1.1h1.877l1.711-.166h6.016l3.146.386a11.974,11.974,0,0,1,1.932.828c.276.11.5.276.718.386a4.244,4.244,0,0,1,.828.552c3.532,2.649,1.932,6.237-.662,8.666l-3.2,1.877-2.539,1.38-1.6.773-1.49.718.607.11a1.716,1.716,0,0,1,.607.055l2.318.5a16.921,16.921,0,0,1,1.987.607c3.036,1.325,3.146,3.864,1.1,6.182-1.049.883-1.932,1.6-2.7,2.153-.552.386-1.711,1.049-3.532,2.1q-1.573.745-2.815,1.325c-.828.386-1.6.662-2.263.938s-1.435.5-2.208.773c-.828.276-1.821.552-3.036.883l-2.7.442-2.7.386-.552-.166-.552-.11-.442-.221-.386-.221Zm4.195-11.481c-1.269,3.146-2.429,6.347-3.532,9.6,1.545-.166,3.091-.386,4.692-.718L25.205,90.9a22.6,22.6,0,0,0,2.539-.883c1.1-.442,8.39-3.036,7.783-4.857l-.11-.331a5.828,5.828,0,0,0-1.656-1.38l-1.38-.5-1.49-.331-2.981-.386-1.821.055a7.131,7.131,0,0,0-1.6.166l-3.477.276-.883.221Zm6.789-15.179c-.883,1.711-1.766,3.477-2.594,5.354-.828,1.821-1.766,3.864-2.7,6.071a58.674,58.674,0,0,0,7.838-2.263,40.832,40.832,0,0,0,5.244-2.373c1.159-.607,7.948-3.864,5.244-5.961l-.883-.662-1.269-.386L35.8,67.388l-2.594-.276c-.607,0-1.269,0-1.821.055a7.647,7.647,0,0,0-1.656.166l-1.932.221a4.831,4.831,0,0,0-.883.11C26.585,67.775,26.309,67.83,26.144,67.885Z" transform="translate(-12.4 -61.745)" fill="#6d7f8b"/>
      <path id="Path_2" data-name="Path 2" d="M85.631,97.49a20,20,0,0,1-5.133,3.036,15.438,15.438,0,0,1-5.409,1.049,1.725,1.725,0,0,0-.662,1.325,1.763,1.763,0,0,0,.166.773,2.147,2.147,0,0,0,.828.883,2.553,2.553,0,0,0,1.38.331h.883a1.961,1.961,0,0,1,.552-.11c.221,0,.386-.055.5-.055a3.2,3.2,0,0,0,.718-.221,18.586,18.586,0,0,0,2.649-.828l1.049-.442,1.269-.442c.552-.055.994,0,1.159.331l.055.442a1.18,1.18,0,0,1-.662.994,16.739,16.739,0,0,1-9,2.7H74.426A5.542,5.542,0,0,1,72,106.431a3.486,3.486,0,0,1-1.711-1.932l-.331-.883-.055-1.159a5.093,5.093,0,0,1,.055-1.049,3.938,3.938,0,0,1,.331-1.1,12.845,12.845,0,0,1,3.7-5.52,29.432,29.432,0,0,1,5.63-4.14L82.1,89.6l1.435-.386,1.159-.11a9.068,9.068,0,0,1,3.532.773,2.041,2.041,0,0,1,1.159,1.987l-.166,1.159a7.106,7.106,0,0,1-1.6,2.539l-1.1,1.1Zm-1.6-2.925.442-.5s.662-.828.718-.883c1.269-1.545-1.656-.552-2.153-.386l-.607.221-.552.221a12.5,12.5,0,0,0-1.1.718c-.386.276-.773.552-1.159.883a6.63,6.63,0,0,0-1.656,2.1q-.166.414.166.5h.607A17.731,17.731,0,0,0,84.03,94.564Z" transform="translate(-38.163 -73.798)" fill="#6d7f8b"/>
      <path id="Path_3" data-name="Path 3" d="M122.475,97.49a20,20,0,0,1-5.133,3.036,15.438,15.438,0,0,1-5.409,1.049,1.725,1.725,0,0,0-.662,1.325,1.763,1.763,0,0,0,.166.773,2.147,2.147,0,0,0,.828.883,2.553,2.553,0,0,0,1.38.331h.883a1.961,1.961,0,0,1,.552-.11c.221,0,.386-.055.5-.055a3.2,3.2,0,0,0,.718-.221,18.588,18.588,0,0,0,2.649-.828l1.049-.442,1.269-.442c.552-.055.994,0,1.159.331l.055.442a1.18,1.18,0,0,1-.662.994,16.74,16.74,0,0,1-9,2.7h-1.49a5.542,5.542,0,0,1-2.429-.828,3.486,3.486,0,0,1-1.711-1.932l-.331-.883-.055-1.159a5.1,5.1,0,0,1,.055-1.049,3.938,3.938,0,0,1,.331-1.1,12.845,12.845,0,0,1,3.7-5.52,29.433,29.433,0,0,1,5.63-4.14l2.373-1.049,1.435-.386,1.159-.11a9.068,9.068,0,0,1,3.532.773,2.042,2.042,0,0,1,1.159,1.987l-.166,1.159a7.106,7.106,0,0,1-1.6,2.539l-1.1,1.1Zm-1.6-2.925.442-.5.718-.883a.763.763,0,0,0,.276-.5q0-.331-1.159-.331l-1.27.442-.607.221-.552.221a12.488,12.488,0,0,0-1.1.718c-.386.276-.773.552-1.159.883a6.631,6.631,0,0,0-1.656,2.1q-.166.414.166.5h.607A17.731,17.731,0,0,0,120.875,94.564Z" transform="translate(-54.696 -73.798)" fill="#6d7f8b"/>
      <path id="Path_4" data-name="Path 4" d="M209.131,97.49A20,20,0,0,1,204,100.525a15.438,15.438,0,0,1-5.409,1.049,1.725,1.725,0,0,0-.662,1.325,1.763,1.763,0,0,0,.166.773,2.147,2.147,0,0,0,.828.883,2.553,2.553,0,0,0,1.38.331h.883a1.961,1.961,0,0,1,.552-.11c.221,0,.386-.055.5-.055a3.2,3.2,0,0,0,.718-.221,18.59,18.59,0,0,0,2.649-.828l1.049-.442,1.269-.442c.552-.055.994,0,1.159.331l.055.442a1.18,1.18,0,0,1-.662.994,16.739,16.739,0,0,1-9,2.7h-1.545a5.542,5.542,0,0,1-2.429-.828,3.486,3.486,0,0,1-1.711-1.932l-.331-.883-.055-1.159a5.093,5.093,0,0,1,.055-1.049,3.938,3.938,0,0,1,.331-1.1,12.845,12.845,0,0,1,3.7-5.52,29.432,29.432,0,0,1,5.63-4.14l2.373-1.049,1.435-.386,1.159-.11a9.068,9.068,0,0,1,3.532.773,2.042,2.042,0,0,1,1.159,1.987l-.166,1.159a7.106,7.106,0,0,1-1.6,2.539l-1.1,1.1Zm-1.6-2.925.442-.5.718-.883a.763.763,0,0,0,.276-.5q0-.331-1.159-.331l-1.269.442-.607.221-.552.221a12.494,12.494,0,0,0-1.1.718c-.386.276-.773.552-1.159.883a6.631,6.631,0,0,0-1.656,2.1q-.166.414.166.5h.607A17.731,17.731,0,0,0,207.53,94.564Z" transform="translate(-93.497 -73.798)" fill="#6d7f8b"/>
      <path id="Path_5" data-name="Path 5" d="M238.259,95.882l.5.055a6.556,6.556,0,0,0,3.532-1.325,4.92,4.92,0,0,1,2.87-.883,8.4,8.4,0,0,1,2.318.331,6.437,6.437,0,0,1,2.373,1.325,3.977,3.977,0,0,1,1.325,2.153l.276,1.987.386,2.76v1.49l.055,1.325-.055.773c-.055.442-.442.662-1.1.773a1.705,1.705,0,0,1-1.6-.607,4.269,4.269,0,0,1-.662-1.711l-.386-3.2a5.051,5.051,0,0,0-.276-1.38l-.386-1.38a1.888,1.888,0,0,0-1.932-1.49,2.56,2.56,0,0,0-1.159.221,20.182,20.182,0,0,0-3.7,1.545,14.063,14.063,0,0,0-3.808,3.257l-3.146,3.919a2.015,2.015,0,0,1-1.545.773l-.883-.11c-.662-.166-1.049-.552-1.049-1.1a2.254,2.254,0,0,1,.221-.883c1.049-2.429,1.932-4.747,2.7-6.9l1.1-3.257,1.1-3.533c.055-.552.607-.938,1.6-1.1l.938.11c.276.055.5.442.662,1.049a4.007,4.007,0,0,1-.166,1.49l-.331,1.1-.276.994-.11.552A.9.9,0,0,0,238.259,95.882Z" transform="translate(-109.985 -74.067)" fill="#6d7f8b"/>
      <path id="Path_6" data-name="Path 6" d="M285.81,92.912a7.6,7.6,0,0,0,2.594-1.049,20.162,20.162,0,0,1,3.257-1.435l1.545-.331,1.325-.386,1.435-.166,1.6.11c.166.055.331.276.5.607l.055.883a1.364,1.364,0,0,1-.607,1.049,22.369,22.369,0,0,1-3.146.828,9.16,9.16,0,0,0-2.981,1.214l-1.325.828-1.325.773a8.144,8.144,0,0,0-2.373,1.987l-1.545,1.821-1.435,1.821a38.039,38.039,0,0,0-2.539,3.808,2.024,2.024,0,0,1-1.159.662l-1.325.11a.524.524,0,0,1-.607-.221l-.331-.552-.221-.883.166-.828.221-.773.276-.883.938-2.318.938-2.318c.221-.662.5-1.435.718-2.263.386-1.214.607-2.1.773-2.594a10.463,10.463,0,0,0,.5-1.987,2.732,2.732,0,0,1,.828-1.821A3.5,3.5,0,0,1,284.1,88h.442a1.451,1.451,0,0,1,1.1.442,3.327,3.327,0,0,1,.442,1.6l-.166.718-.221,1.049v1.1Z" transform="translate(-131.043 -73.305)" fill="#6d7f8b"/>
      <path id="Path_7" data-name="Path 7" d="M332.228,90.3a4.4,4.4,0,0,1,1.877.718,3.278,3.278,0,0,1,1.435,1.435,5.774,5.774,0,0,1,.386,2.042,6.109,6.109,0,0,1-.11,1.049,4.422,4.422,0,0,1-.442,1.159A31.022,31.022,0,0,1,333,100.288a25.237,25.237,0,0,1-5.078,3.588,20.832,20.832,0,0,1-5.851,1.932l-.662.11h-1.38l-.718-.166a12.352,12.352,0,0,1-2.539-.828c-1.6-.828-2.373-1.932-2.373-3.257a4.658,4.658,0,0,1,.386-1.766,23.5,23.5,0,0,1,3.036-5.244,21.157,21.157,0,0,1,4.968-3.974,25.365,25.365,0,0,1,5.961-2.373l.883-.11a1.89,1.89,0,0,1,.994.221,2.577,2.577,0,0,1,1.325,1.325Zm-.883,8.058a3.856,3.856,0,0,0,1.1-2.484,3.549,3.549,0,0,0-1.214-2.539,7.44,7.44,0,0,0-2.318-.442,8.535,8.535,0,0,0-2.153.331,13.729,13.729,0,0,0-3.974,2.1,15.875,15.875,0,0,0-1.987,1.932,9.386,9.386,0,0,0-1.656,2.594,3.123,3.123,0,0,0-.331,1.325,2.954,2.954,0,0,0,.221.993c.166.442,1.049.662,2.594.662a9.331,9.331,0,0,0,5.133-1.49l2.373-1.214A11.49,11.49,0,0,0,331.345,98.356Z" transform="translate(-147.711 -73.395)" fill="#6d7f8b"/>
      <path id="Path_8" data-name="Path 8" d="M371.625,63.708l-5.243,11.867a33.2,33.2,0,0,0-2.042,6.734,38.606,38.606,0,0,0-.773,7.727c0,.773.166,1.325.5,1.545a1.663,1.663,0,0,0,.938.442l.442-.055c.5-.166.883.055,1.214.607a2.49,2.49,0,0,1-.055.718,3.161,3.161,0,0,1-.386.718,4.8,4.8,0,0,1-2.429.607,3.512,3.512,0,0,1-2.318-.828,3.447,3.447,0,0,1-1.049-1.435l-.221-.883V88.435a2.1,2.1,0,0,1,.055-.718,57.984,57.984,0,0,1,2.318-11.646c.276-.994.607-2.042.993-3.2s.718-2.263,1.1-3.257.773-1.932,1.159-2.87.883-1.932,1.38-2.981l.773-1.49a2.371,2.371,0,0,1,1.6-.883,1.966,1.966,0,0,1,1.766.5,2.878,2.878,0,0,1,.331,1.214Z" transform="translate(-168.231 -61.376)" fill="#6d7f8b"/>
      <path id="Path_9" data-name="Path 9" d="M391.225,63.708l-5.244,11.867a33.212,33.212,0,0,0-2.042,6.734,38.613,38.613,0,0,0-.773,7.727c0,.773.166,1.325.5,1.545a1.663,1.663,0,0,0,.938.442l.442-.055c.5-.166.883.055,1.214.607a2.491,2.491,0,0,1-.055.718,3.166,3.166,0,0,1-.386.718,4.8,4.8,0,0,1-2.429.607,3.511,3.511,0,0,1-2.318-.828,3.446,3.446,0,0,1-1.049-1.435l-.221-.883V88.435a2.1,2.1,0,0,1,.055-.718,57.992,57.992,0,0,1,2.318-11.646c.276-.994.607-2.042.994-3.2s.718-2.263,1.1-3.257.773-1.932,1.159-2.87.883-1.932,1.38-2.981l.828-1.49a2.371,2.371,0,0,1,1.6-.883,1.966,1.966,0,0,1,1.766.5,2.878,2.878,0,0,1,.331,1.214Z" transform="translate(-177.013 -61.376)" fill="#6d7f8b"/>
      <path id="Path_10" data-name="Path 10" d="M415.075,97.49a20,20,0,0,1-5.133,3.036,15.438,15.438,0,0,1-5.409,1.049,1.725,1.725,0,0,0-.662,1.325,1.763,1.763,0,0,0,.166.773,2.147,2.147,0,0,0,.828.883,2.553,2.553,0,0,0,1.38.331h.883a1.961,1.961,0,0,1,.552-.11c.221,0,.386-.055.5-.055a4.361,4.361,0,0,0,.718-.221,18.59,18.59,0,0,0,2.649-.828l1.049-.442,1.27-.442c.552-.055.993,0,1.159.331l.055.442a1.18,1.18,0,0,1-.662.994,16.739,16.739,0,0,1-9,2.7h-1.49a5.542,5.542,0,0,1-2.429-.828,3.486,3.486,0,0,1-1.711-1.932l-.331-.883-.055-1.159a5.09,5.09,0,0,1,.055-1.049,3.938,3.938,0,0,1,.331-1.1,12.845,12.845,0,0,1,3.7-5.52,29.431,29.431,0,0,1,5.63-4.14l2.373-1.049,1.49-.386,1.159-.11a9.068,9.068,0,0,1,3.532.773,2.041,2.041,0,0,1,1.159,1.987l-.166,1.159a7.1,7.1,0,0,1-1.6,2.539l-1.1,1.1Zm-1.6-2.925.442-.5.717-.883a.763.763,0,0,0,.276-.5q0-.331-1.159-.331l-1.269.442-.607.221-.552.221a12.5,12.5,0,0,0-1.1.718c-.386.276-.773.552-1.159.883a6.631,6.631,0,0,0-1.656,2.1q-.166.414.166.5h.607A17.09,17.09,0,0,0,413.475,94.564Z" transform="translate(-185.795 -73.798)" fill="#6d7f8b"/>
      <path id="Path_11" data-name="Path 11" d="M463.553,72.381l-1.325,3.2-1.214,3.146c-.717,1.821-1.435,3.919-2.153,6.347A64.647,64.647,0,0,0,456.6,95.894l-.276,1.159-.11,1.159A1.7,1.7,0,0,1,455,99.923a1.925,1.925,0,0,1-1.38-.331,3.9,3.9,0,0,1-.718-2.649v-.607l.055-.773c0-.994.055-1.711.11-2.318a10.018,10.018,0,0,1,.441-1.877c-.11-.11-.221-.221-.276-.221a51.812,51.812,0,0,1-6.016,5.188,15.031,15.031,0,0,1-3.422,1.877,9.777,9.777,0,0,1-3.532.662,4.655,4.655,0,0,1-2.042-.386A5.054,5.054,0,0,1,436.562,97a4.344,4.344,0,0,1-.662-2.318,3.341,3.341,0,0,1,.221-1.325,7.152,7.152,0,0,1,1.656-3.367,20.027,20.027,0,0,1,4.636-4.8,35.774,35.774,0,0,1,5.63-3.477l1.325-.5,1.987-.552.883-.11h.552a5.5,5.5,0,0,1,1.987.386l.773.5.442.276c.938-2.815,1.6-5.078,1.987-6.679a11.833,11.833,0,0,1,3.036-5.133,1.282,1.282,0,0,1,1.049-.5,1.748,1.748,0,0,1,.883.221,2.436,2.436,0,0,1,.607,1.214l.055.5v1.049Zm-9.494,13.468.221-.938c.055-.221-.055-.442-.442-.718H452.9a3.71,3.71,0,0,0-1.325.221l-2.153.607a21.737,21.737,0,0,0-6.016,3.919l-1.821,1.932a8.543,8.543,0,0,0-1.325,2.1c0,.055-.11.331-.276.828a2.954,2.954,0,0,0-.221.994,2.057,2.057,0,0,0,.11.662c.055.166.331.221.828.221a6.4,6.4,0,0,0,1.546-.221,8.988,8.988,0,0,0,2.263-.938l2.318-1.325a28.839,28.839,0,0,0,4.195-3.2A13.4,13.4,0,0,0,454.059,85.848Z" transform="translate(-202.149 -64.971)" fill="#6d7f8b"/>
    </g>
    <g id="Group_2" data-name="Group 2" transform="translate(0.019 62.787)">
      <path id="Path_12" data-name="Path 12" d="M225.922,133.266a8.422,8.422,0,0,1,.607.883.284.284,0,0,0,.5-.276,9.761,9.761,0,0,0-.662-.938.276.276,0,0,0-.442.331m-1.49-1.545a5.115,5.115,0,0,1,.773.773.273.273,0,0,0,.386-.386,5.5,5.5,0,0,0-.828-.773.267.267,0,0,0-.386,0,.34.34,0,0,0,.055.386m-1.711-1.325c.331.221.607.442.883.662a.276.276,0,1,0,.331-.442c-.276-.221-.607-.442-.883-.662a.276.276,0,1,0-.331.442m-1.877-1.159a5.242,5.242,0,0,1,.938.552.284.284,0,0,0,.276-.5c-.331-.166-.662-.386-.993-.552a.366.366,0,0,0-.386.11.43.43,0,0,0,.166.386m-1.932-.938a7.824,7.824,0,0,0,.994.442.366.366,0,0,0,.386-.11.341.341,0,0,0-.11-.386l-.994-.5c-.166-.055-.276,0-.386.166a.237.237,0,0,0,.11.386m-2.042-.828c.331.11.718.276,1.049.386.166.055.276,0,.386-.166.055-.166,0-.276-.166-.386-.331-.11-.662-.276-1.049-.386a.231.231,0,0,0-.331.166.237.237,0,0,0,.11.386m-2.1-.718c.331.11.718.221,1.049.331a.262.262,0,0,0,.166-.5c-.331-.11-.718-.221-1.049-.331a.268.268,0,0,0-.331.166.246.246,0,0,0,.166.331m-2.1-.607a9.957,9.957,0,0,0,1.049.276.262.262,0,1,0,.166-.5,7.355,7.355,0,0,0-1.049-.276c-.166-.055-.276.055-.331.221-.055.055,0,.221.166.276m-2.153-.552c.386.11.718.166,1.049.276.166.055.276-.055.331-.221s-.055-.276-.221-.331c-.331-.11-.718-.166-1.1-.276-.166-.055-.276.055-.331.221.055.166.11.331.276.331m-2.153-.442c.386.055.718.166,1.1.221.166.055.276-.055.331-.221s-.055-.276-.221-.331c-.386-.055-.718-.166-1.1-.221-.166-.055-.276.055-.331.221s.055.276.221.331m-2.153-.442a7.815,7.815,0,0,1,1.1.221c.166.055.276-.055.331-.221s-.055-.276-.221-.331a7.819,7.819,0,0,1-1.1-.221.3.3,0,0,0-.331.221.243.243,0,0,0,.221.331m-2.208-.331c.386.055.718.11,1.1.166a.281.281,0,1,0,.11-.552c-.386-.055-.718-.11-1.1-.166a.3.3,0,0,0-.331.221c0,.166.055.331.221.331m-2.153-.331c.386.055.717.11,1.1.166a.281.281,0,0,0,.11-.552c-.386-.055-.718-.11-1.1-.166a.373.373,0,0,0-.331.221c-.055.221.055.331.221.331m-2.208-.221c.386.055.718.055,1.1.11a.281.281,0,0,0,.11-.552,7.483,7.483,0,0,0-1.1-.11.373.373,0,0,0-.331.221c-.055.166.055.276.221.331m-2.208-.221c.386.055.718.055,1.1.11a.373.373,0,0,0,.331-.221.253.253,0,0,0-.221-.276c-.386-.055-.718-.055-1.1-.11a.261.261,0,0,0-.276.276c-.11.055,0,.166.166.221m-2.208-.221c.386.055.718.055,1.1.11a.276.276,0,0,0,0-.552c-.386-.055-.718-.055-1.1-.11a.276.276,0,0,0,0,.552m-2.208-.166c.386,0,.718.055,1.1.055a.276.276,0,0,0,0-.552c-.386,0-.718-.055-1.1-.055a.276.276,0,0,0,0,.552m-2.208-.11c.386,0,.718.055,1.1.055a.276.276,0,0,0,0-.552c-.386,0-.718-.055-1.1-.055a.276.276,0,0,0,0,.552M188.61,123c.386,0,.718.055,1.1.055a.276.276,0,0,0,0-.552c-.386,0-.718-.055-1.1-.055a.276.276,0,0,0,0,.552m-2.208-.055a7.4,7.4,0,0,1,1.1.055.276.276,0,0,0,0-.552,7.4,7.4,0,0,1-1.1-.055.276.276,0,0,0,0,.552m-2.208-.055h1.1a.276.276,0,0,0,0-.552h-1.1a.276.276,0,0,0,0,.552m-2.208,0h1.1a.276.276,0,0,0,0-.552h-1.1a.261.261,0,0,0-.276.276c0,.11.11.221.276.276m-2.208-.055h1.1a.276.276,0,0,0,0-.552h-1.1a.276.276,0,0,0,0,.552m-2.208.055h1.1a.276.276,0,0,0,0-.552h-1.1a.261.261,0,0,0-.276.276.3.3,0,0,0,.276.276m-2.208,0h1.1a.276.276,0,0,0,0-.552h-1.1a.276.276,0,0,0,0,.552m-2.263.055a7.4,7.4,0,0,0,1.1-.055.276.276,0,0,0,0-.552,7.4,7.4,0,0,0-1.1.055.261.261,0,0,0-.276.276.3.3,0,0,0,.276.276m-2.208.11A7.4,7.4,0,0,0,172,123a.276.276,0,0,0,0-.552,7.4,7.4,0,0,0-1.1.055.261.261,0,0,0-.276.276.3.3,0,0,0,.276.276m-2.208.055c.386,0,.718-.055,1.1-.055a.276.276,0,0,0,0-.552c-.386,0-.718.055-1.1.055a.276.276,0,0,0,0,.552m-2.208.11c.386,0,.718-.055,1.1-.055a.276.276,0,0,0,0-.552c-.386,0-.718.055-1.1.055a.3.3,0,0,0-.276.276.261.261,0,0,0,.276.276m-2.208.11c.386,0,.718-.055,1.1-.055a.276.276,0,0,0,0-.552c-.386,0-.718.055-1.1.055a.3.3,0,0,0-.276.276c0,.166.11.331.276.276m-2.208.166c.386,0,.718-.055,1.1-.055a.276.276,0,0,0,0-.552c-.386,0-.718.055-1.1.055a.3.3,0,0,0-.276.276.261.261,0,0,0,.276.276m-2.208.166c.386,0,.718-.055,1.1-.055a.276.276,0,0,0,0-.552c-.386,0-.718.055-1.1.055a.3.3,0,0,0-.276.276.261.261,0,0,0,.276.276m-2.208.166c.386-.055.718-.055,1.1-.11a.276.276,0,1,0,0-.552c-.386.055-.718.055-1.1.11a.3.3,0,0,0-.276.276.261.261,0,0,0,.276.276m-2.208.166c.386-.055.718-.055,1.1-.11a.276.276,0,1,0,0-.552c-.386.055-.718.055-1.1.11a.3.3,0,0,0-.276.276.261.261,0,0,0,.276.276m-2.208.221c.386-.055.718-.055,1.1-.11a.276.276,0,0,0,0-.552c-.386.055-.718.055-1.1.11a.276.276,0,0,0,0,.552m-2.208.221c.386-.055.718-.055,1.1-.11a.276.276,0,1,0,0-.552c-.386.055-.718.055-1.1.11-.166,0-.276.166-.221.276a.222.222,0,0,0,.221.276m-2.153.221c.386-.055.718-.055,1.1-.11a.281.281,0,1,0-.11-.552c-.386.055-.718.055-1.1.11a.243.243,0,0,0-.221.331c0,.11.166.221.331.221m-2.208.221a7.481,7.481,0,0,1,1.1-.11.281.281,0,0,0-.11-.552,7.479,7.479,0,0,1-1.1.11.243.243,0,0,0-.221.331c.055.166.166.276.331.221m-2.208.276a7.481,7.481,0,0,1,1.1-.11.281.281,0,1,0-.11-.552,7.481,7.481,0,0,1-1.1.11.243.243,0,0,0-.221.331.373.373,0,0,0,.331.221m-2.208.276c.386-.055.718-.11,1.1-.166a.281.281,0,0,0-.11-.552c-.386.055-.718.11-1.1.166a.243.243,0,0,0-.221.331.343.343,0,0,0,.331.221m-2.153.276c.386-.055.718-.11,1.1-.166a.281.281,0,1,0-.11-.552c-.386.055-.718.11-1.1.166a.281.281,0,1,0,.11.552m-2.208.331c.386-.055.718-.11,1.1-.166a.243.243,0,0,0,.221-.331c-.055-.166-.166-.276-.331-.221-.386.055-.718.11-1.1.166a.243.243,0,0,0-.221.331.3.3,0,0,0,.331.221m-2.208.331c.386-.055.718-.11,1.1-.166a.281.281,0,0,0-.11-.552c-.386.055-.718.11-1.1.166a.243.243,0,0,0-.221.331.343.343,0,0,0,.331.221m-2.153.331c.386-.055.718-.11,1.1-.166a.281.281,0,1,0-.11-.552c-.386.055-.718.11-1.1.166a.243.243,0,0,0-.221.331c.055.166.166.276.331.221m-2.208.386c.386-.055.718-.11,1.1-.166a.281.281,0,1,0-.11-.552c-.386.055-.718.11-1.1.166a.243.243,0,0,0-.221.331.454.454,0,0,0,.331.221m-2.153.386c.386-.055.718-.11,1.1-.166a.281.281,0,0,0-.11-.552c-.386.055-.718.11-1.1.166a.243.243,0,0,0-.221.331c0,.11.166.221.331.221m-2.208.386a2.39,2.39,0,0,0,.276-.055c.276-.055.552-.11.773-.166a.281.281,0,0,0-.11-.552l-.828.166c-.11,0-.166.055-.276.055a.243.243,0,0,0-.221.331.478.478,0,0,0,.386.221m-2.153.386c.386-.055.718-.11,1.1-.166a.281.281,0,0,0-.11-.552c-.386.055-.718.11-1.1.166a.243.243,0,0,0-.221.331c0,.11.166.221.331.221m-2.208.331c.386-.055.718-.11,1.1-.166a.281.281,0,1,0-.11-.552c-.386.055-.718.11-1.1.166a.243.243,0,0,0-.221.331.373.373,0,0,0,.331.221m-2.208.221c.386-.055.718-.055,1.1-.11a.281.281,0,0,0-.11-.552,7.477,7.477,0,0,1-1.1.11c-.166,0-.276.166-.221.276a.35.35,0,0,0,.331.276m-2.208.221a7.483,7.483,0,0,0,1.1-.11.276.276,0,0,0,0-.552c-.386.055-.718.055-1.1.11a.3.3,0,0,0-.276.276.261.261,0,0,0,.276.276m-2.208.11a7.4,7.4,0,0,0,1.1-.055.261.261,0,0,0,.276-.276.3.3,0,0,0-.276-.276c-.386,0-.718.055-1.1.055a.261.261,0,0,0-.276.276c-.055.166.11.276.276.276m-2.263,0h1.159a.276.276,0,1,0,0-.552h-1.1a.261.261,0,0,0-.276.276c-.055.166.055.276.221.276m-2.208-.055c.386,0,.718.055,1.1.055a.276.276,0,1,0,0-.552c-.386,0-.718-.055-1.1-.055a.261.261,0,0,0-.276.276.3.3,0,0,0,.276.276m-2.208-.221c.386.055.718.055,1.1.11a.276.276,0,1,0,0-.552c-.386-.055-.718-.055-1.1-.11a.373.373,0,0,0-.331.221q.083.331.331.331m-2.208-.276c.386.055.718.11,1.1.166a.281.281,0,0,0,.11-.552c-.386-.055-.718-.11-1.1-.166a.3.3,0,0,0-.331.221c-.055.11.055.276.221.331m-2.208-.5c.331.11.718.166,1.1.276.166.055.276-.055.331-.221s-.055-.276-.221-.331a5.821,5.821,0,0,1-1.049-.276c-.166-.055-.276.055-.331.221a.268.268,0,0,0,.166.331m-2.1-.662c.331.11.718.221,1.049.331a.262.262,0,0,0,.166-.5c-.331-.11-.718-.221-1.049-.331a.262.262,0,1,0-.166.5m-2.1-.828c.331.166.662.276,1.049.442.166.055.276,0,.386-.166.055-.166,0-.276-.166-.386-.331-.166-.662-.276-.994-.442a.341.341,0,0,0-.386.11c-.11.221-.055.386.11.442M98.7,125.539c.331.166.662.386.994.552a.284.284,0,1,0,.276-.5,5.242,5.242,0,0,1-.938-.552.291.291,0,0,0-.386.11.258.258,0,0,0,.055.386m-1.821-1.27c.276.221.607.442.883.662a.276.276,0,0,0,.331-.442c-.331-.221-.607-.442-.883-.662a.276.276,0,1,0-.331.442m-1.656-1.545a5.5,5.5,0,0,0,.828.773.273.273,0,0,0,.386-.386,10.2,10.2,0,0,1-.773-.773.267.267,0,0,0-.386,0,.236.236,0,0,0-.055.386m-1.435-1.711c.221.276.442.607.662.883a.276.276,0,1,0,.442-.331c-.221-.276-.442-.552-.662-.883a.276.276,0,0,0-.442.331m-1.159-1.932a8.928,8.928,0,0,0,.552.994.317.317,0,0,0,.386.11.341.341,0,0,0,.11-.386c-.166-.331-.386-.662-.5-.938a.317.317,0,0,0-.386-.11c-.166,0-.221.166-.166.331m-.883-2.1a8.046,8.046,0,0,0,.386,1.049.3.3,0,0,0,.552-.221,8.047,8.047,0,0,1-.386-1.049.246.246,0,0,0-.331-.166c-.166.11-.276.221-.221.386m-.5-2.208c.055.331.11.662.221,1.1a.281.281,0,0,0,.552-.11c-.11-.386-.166-.773-.221-1.049a.243.243,0,0,0-.331-.221c-.166,0-.276.11-.221.276m-.5.276a9.6,9.6,0,0,0,.718-.828.276.276,0,1,0-.442-.331c-.221.276-.5.552-.718.828a.267.267,0,0,0,0,.386.417.417,0,0,0,.442-.055m-1.545,1.6a10.194,10.194,0,0,1,.773-.773.273.273,0,1,0-.386-.386,10.2,10.2,0,0,1-.773.773.273.273,0,0,0,.386.386h0M87.6,118.2a10.592,10.592,0,0,0,.828-.773.273.273,0,0,0-.386-.386,9.589,9.589,0,0,1-.828.718.267.267,0,0,0,0,.386.233.233,0,0,0,.386.055m-1.711,1.435c.276-.221.552-.442.883-.718a.276.276,0,1,0-.331-.442,9.591,9.591,0,0,0-.828.718.273.273,0,0,0-.055.386c.055.166.221.166.331.055m-1.766,1.38c.276-.221.607-.442.883-.662a.276.276,0,1,0-.331-.442c-.276.221-.607.442-.883.662a.273.273,0,0,0-.055.386.34.34,0,0,0,.386.055M82.3,122.227c.331-.221.607-.386.938-.607a.276.276,0,1,0-.331-.442c-.276.221-.607.386-.938.607a.273.273,0,0,0-.055.386.258.258,0,0,0,.386.055m-1.932,1.159c.331-.166.662-.386.938-.552a.284.284,0,1,0-.276-.5c-.331.166-.607.386-.938.552a.317.317,0,0,0-.11.386c.11.166.276.221.386.11m-1.932,1.1a8.928,8.928,0,0,0,.994-.552.284.284,0,0,0-.276-.5l-.994.5a.317.317,0,0,0-.11.386.323.323,0,0,0,.386.166m-1.987.994.994-.5a.284.284,0,1,0-.276-.5l-.994.5a.237.237,0,0,0-.11.386.317.317,0,0,0,.386.11m-2.042.938c.331-.166.662-.276,1.049-.442a.3.3,0,0,0-.221-.552c-.331.166-.662.276-.994.442a.285.285,0,0,0-.166.386c.055.11.221.221.331.166m-2.042.773c.331-.11.718-.276,1.049-.386a.3.3,0,0,0-.221-.552c-.331.11-.662.276-1.049.386a.246.246,0,0,0-.166.331.279.279,0,0,0,.386.221m-2.1.773a8.047,8.047,0,0,0,1.049-.386.262.262,0,0,0-.166-.5,8.05,8.05,0,0,0-1.049.386.246.246,0,0,0-.166.331c0,.11.166.221.331.166m-2.153.662c.331-.11.718-.221,1.049-.331a.262.262,0,0,0-.166-.5c-.331.11-.718.221-1.049.331a.246.246,0,0,0-.166.331c.055.11.221.221.331.166m-2.153.607c.386-.11.718-.166,1.049-.276a.262.262,0,0,0-.166-.5,7.353,7.353,0,0,1-1.049.276.3.3,0,0,0-.221.331c.11.11.276.221.386.166m-2.153.5a8.074,8.074,0,0,0,1.1-.276.281.281,0,1,0-.11-.552c-.331.11-.718.166-1.049.276a.3.3,0,0,0-.221.331c0,.166.11.276.276.221m-2.153.5c.386-.055.718-.166,1.1-.221a.281.281,0,1,0-.11-.552c-.386.055-.718.166-1.1.221a.3.3,0,0,0-.221.331c0,.166.166.221.331.221m-2.208.386c.386-.055.718-.11,1.1-.166a.281.281,0,1,0-.11-.552c-.386.055-.718.11-1.1.166a.243.243,0,0,0-.221.331.3.3,0,0,0,.331.221m-2.208.331c.386-.055.718-.11,1.1-.166a.281.281,0,1,0-.11-.552c-.386.055-.718.11-1.1.166a.243.243,0,0,0-.221.331c.055.166.166.276.331.221m-2.208.276a7.479,7.479,0,0,1,1.1-.11.281.281,0,0,0-.11-.552,7.481,7.481,0,0,1-1.1.11.243.243,0,0,0-.221.331c.055.166.221.276.331.221m-2.208.221c.386-.055.718-.055,1.1-.11.166,0,.276-.166.221-.276a.243.243,0,0,0-.331-.221c-.386.055-.718.055-1.1.11a.3.3,0,0,0-.276.276c.11.166.276.276.386.221m-2.208.221c.386,0,.718-.055,1.1-.055a.276.276,0,1,0,0-.552,7.394,7.394,0,0,1-1.1.055.3.3,0,0,0-.276.276.261.261,0,0,0,.276.276m-2.208.11c.386,0,.718-.055,1.1-.055a.276.276,0,0,0,0-.552c-.386,0-.718.055-1.1.055a.276.276,0,1,0,0,.552m-2.208.11a7.4,7.4,0,0,0,1.1-.055.276.276,0,0,0,0-.552,7.4,7.4,0,0,0-1.1.055.261.261,0,0,0-.276.276.3.3,0,0,0,.276.276m-2.208,0h1.1a.276.276,0,1,0,0-.552H44a.276.276,0,0,0,0,.552m-2.208,0h1.1a.276.276,0,1,0,0-.552h-1.1a.276.276,0,0,0,0,.552m-2.208-.055h1.1a.276.276,0,0,0,0-.552h-1.1a.276.276,0,0,0,0,.552m-2.263-.055c.386,0,.718.055,1.1.055a.276.276,0,0,0,0-.552c-.386,0-.718-.055-1.1-.055a.261.261,0,0,0-.276.276.3.3,0,0,0,.276.276m-2.208-.11c.386,0,.718.055,1.1.055a.276.276,0,1,0,0-.552c-.386,0-.718-.055-1.1-.055a.261.261,0,0,0-.276.276.3.3,0,0,0,.276.276m-2.208-.166a7.4,7.4,0,0,0,1.1.055.276.276,0,0,0,0-.552c-.386,0-.718-.055-1.1-.055a.276.276,0,0,0,0,.552m-2.208-.166c.386.055.718.055,1.1.11a.276.276,0,0,0,0-.552c-.386-.055-.718-.055-1.1-.11a.261.261,0,0,0-.276.276c0,.11.11.221.276.276m-2.208-.221c.386.055.718.055,1.1.11a.253.253,0,0,0,.276-.221.261.261,0,0,0-.276-.276c-.386-.055-.718-.055-1.1-.11a.373.373,0,0,0-.331.221c.055.11.166.276.331.276m-2.208-.276a7.481,7.481,0,0,0,1.1.11.281.281,0,1,0,.11-.552,7.479,7.479,0,0,0-1.1-.11.373.373,0,0,0-.331.221.243.243,0,0,0,.221.331m-2.208-.276c.386.055.718.11,1.1.166a.281.281,0,1,0,.11-.552c-.386-.055-.718-.11-1.1-.166a.373.373,0,0,0-.331.221c0,.166.11.331.221.331m-2.208-.276c.386.055.718.11,1.1.166a.281.281,0,1,0,.11-.552c-.386-.055-.718-.11-1.1-.166a.3.3,0,0,0-.331.221.373.373,0,0,0,.221.331m-2.153-.386c.386.055.718.11,1.1.166a.281.281,0,0,0,.11-.552c-.386-.055-.718-.11-1.1-.166a.3.3,0,0,0-.331.221.243.243,0,0,0,.221.331m-2.208-.331c.386.055.718.11,1.1.166a.281.281,0,0,0,.11-.552c-.386-.055-.718-.11-1.1-.166a.281.281,0,0,0-.11.552m-2.153-.386a7.811,7.811,0,0,1,1.1.221.281.281,0,0,0,.11-.552,7.813,7.813,0,0,1-1.1-.221c-.166-.055-.276.055-.331.221s.055.276.221.331m-2.208-.442c.331.055.718.166,1.1.221.166.055.276-.055.331-.221s-.055-.276-.221-.331c-.386-.055-.718-.166-1.1-.221-.166-.055-.276.055-.331.221a.3.3,0,0,0,.221.331m-2.153-.442c.331.055.718.166,1.1.221.166.055.276-.055.331-.221s-.055-.276-.221-.331c-.386-.055-.718-.166-1.1-.221-.166-.055-.276.055-.331.221s.055.276.221.331m-2.208-.5c.331.055.718.166,1.1.221.166.055.276-.055.331-.221s-.055-.276-.221-.331c-.386-.055-.718-.166-1.1-.221-.166-.055-.276.055-.331.221,0,.166.11.331.221.331m-2.153-.5c.331.11.718.166,1.1.276.166.055.276-.055.331-.221s-.055-.276-.221-.331c-.386-.11-.718-.166-1.049-.276-.166-.055-.276.055-.331.221a.268.268,0,0,0,.166.331m-2.153-.552c.331.11.718.166,1.049.276.166.055.276-.055.331-.221s-.055-.276-.221-.331c-.386-.11-.718-.166-1.049-.276-.166-.055-.276.055-.331.221,0,.166.11.331.221.331M2.327,126.2c.331.11.662.166,1.049.276.166.055.276-.055.331-.221s-.055-.276-.221-.331c-.386-.11-.773-.221-1.049-.276-.166-.055-.276.055-.331.221a.454.454,0,0,0,.221.331m-2.1-.607s.386.11,1.049.331a.262.262,0,0,0,.166-.5C.726,125.208.4,125.1.4,125.1a.268.268,0,0,0-.331.166c-.11.11,0,.276.166.331" transform="translate(-0.019 -113.761)" fill="#6d7f8b"/>
    </g>
    <g id="Group_12" data-name="Group 12" transform="translate(53.951 -0.007)">
      <g id="Group_5" data-name="Group 5" transform="translate(27.162 12.096)">
        <g id="Group_3" data-name="Group 3" transform="translate(3.344 12.028)">
          <path id="Path_13" data-name="Path 13" d="M180.818,52.862A19.021,19.021,0,0,0,179,48.06a17.717,17.717,0,0,1-22.188-4.36A19.58,19.58,0,0,0,153,47.177c2.1,3.422,6.955,6.623,12.75,7.838C171.656,56.284,177.562,55.291,180.818,52.862Z" transform="translate(-153 -43.7)" fill="#6d7f8b"/>
        </g>
        <g id="Group_4" data-name="Group 4" transform="translate(1.577 33.334)">
          <path id="Path_14" data-name="Path 14" d="M149.8,82.3a54.05,54.05,0,0,0,9.107,15.289,56.986,56.986,0,0,0,14.3-10.266,36.131,36.131,0,0,1-12.088-.5A37.083,37.083,0,0,1,149.8,82.3Z" transform="translate(-149.8 -82.3)" fill="#6d7f8b"/>
        </g>
        <path id="Path_15" data-name="Path 15" d="M178.38,63.6c-4.25,2.153-10.1,2.815-16.283,1.545-6.127-1.325-11.149-4.305-14.185-7.948a16.577,16.577,0,0,0-.883,7.507A29.091,29.091,0,0,0,160.718,71.5a28.274,28.274,0,0,0,15.179-.607A17.6,17.6,0,0,0,178.38,63.6Z" transform="translate(-146.942 -37.72)" fill="#eeb111"/>
        <path id="Path_16" data-name="Path 16" d="M184.112,30.735c-.828,3.974-5.851,6.4-11.149,5.244-5.3-1.1-8.886-5.409-8.059-9.383s5.63-5.464,10.984-4.305C181.131,23.449,184.939,26.705,184.112,30.735Z" transform="translate(-154.937 -21.908)" fill="#eeb111"/>
      </g>
      <g id="Group_8" data-name="Group 8" transform="translate(0 3.557)">
        <g id="Group_6" data-name="Group 6" transform="translate(58.527 15.078)">
          <path id="Path_17" data-name="Path 17" d="M228.182,33.945a27.879,27.879,0,0,0-10.708.938,69.3,69.3,0,0,0-13.247,5.078.892.892,0,0,0-.386,1.159,27.664,27.664,0,0,0,8.721,10.708,18.405,18.405,0,0,0,4.968,2.539,17.443,17.443,0,0,0,13.136-.718,13.065,13.065,0,0,0,5.575-4.857,9.306,9.306,0,0,0,1.435-4.581,9.47,9.47,0,0,0-1.214-4.968C234.86,36.319,232.045,34.5,228.182,33.945Zm-10.266,2.594a26.431,26.431,0,0,1,9.99-.883,9.956,9.956,0,0,1,4.084,1.435,8.6,8.6,0,0,1,2.981,3.146,7.658,7.658,0,0,1,.993,4.029,7.537,7.537,0,0,1-1.214,3.753,11.391,11.391,0,0,1-4.857,4.195,14.911,14.911,0,0,1-7.286,1.49,15.679,15.679,0,0,1-4.471-.883A19.521,19.521,0,0,1,213.61,50.5a25.878,25.878,0,0,1-7.783-9.328A63.062,63.062,0,0,1,217.915,36.539Z" transform="translate(-203.768 -33.755)" fill="#6d7f8b"/>
        </g>
        <g id="Group_7" data-name="Group 7">
          <path id="Path_18" data-name="Path 18" d="M101.522,8.514a9.152,9.152,0,0,0-3.7,8.776,13.043,13.043,0,0,0,3.146,6.734,17.127,17.127,0,0,0,6.789,4.8,18.744,18.744,0,0,0,4.912,1.159,19.08,19.08,0,0,0,5.575-.331,28.242,28.242,0,0,0,12.364-6.237.819.819,0,0,0,.11-1.214,63.691,63.691,0,0,0-9.99-10.046,27.06,27.06,0,0,0-9.438-5.188A10.622,10.622,0,0,0,101.522,8.514Zm6.844,18.711A15.457,15.457,0,0,1,102.3,22.92a11.906,11.906,0,0,1-2.76-5.851,7.785,7.785,0,0,1,.442-3.919,7.62,7.62,0,0,1,2.539-3.257,8.407,8.407,0,0,1,3.974-1.656,10.733,10.733,0,0,1,4.305.386,25.713,25.713,0,0,1,8.776,4.857,66.224,66.224,0,0,1,9.162,9.107A25.849,25.849,0,0,1,117.8,27.943a17.575,17.575,0,0,1-5.078.276A15.562,15.562,0,0,1,108.366,27.225Z" transform="translate(-97.731 -6.437)" fill="#6d7f8b"/>
        </g>
      </g>
      <g id="Group_11" data-name="Group 11" transform="translate(39.795 0)">
        <g id="Group_9" data-name="Group 9">
          <path id="Path_19" data-name="Path 19" d="M170.31.935a3.082,3.082,0,0,0,.166,3.532,2.8,2.8,0,0,0,1.325.938,3.149,3.149,0,0,0,1.877-.11.646.646,0,0,0-.442-1.214,1.476,1.476,0,0,1-1.821-.386,1.841,1.841,0,0,1-.11-2.042,1.416,1.416,0,0,1,1.711-.276,3.026,3.026,0,0,1,1.821,1.6,10.144,10.144,0,0,1,.883,2.76,18.9,18.9,0,0,1,.11,3.808.61.61,0,1,0,1.214.11c.055-.331.773-8.058-3.7-9.494A2.662,2.662,0,0,0,170.31.935Z" transform="translate(-169.829 0.007)" fill="#6d7f8b"/>
        </g>
        <g id="Group_10" data-name="Group 10" transform="translate(10.382 3.126)">
          <path id="Path_20" data-name="Path 20" d="M198.276,7.667a3.127,3.127,0,0,1-1.545,3.146,2.327,2.327,0,0,1-1.6.276,3.059,3.059,0,0,1-1.656-.883.624.624,0,0,1,.883-.883,1.494,1.494,0,0,0,1.821.386,1.825,1.825,0,0,0,.938-1.821c-.11-.662-.883-.883-1.435-.938a3.21,3.21,0,0,0-2.318.718,8.207,8.207,0,0,0-1.877,2.153,18.49,18.49,0,0,0-1.656,3.422.611.611,0,1,1-1.159-.386c.11-.331,2.594-7.672,7.231-7.175A2.424,2.424,0,0,1,198.276,7.667Z" transform="translate(-188.638 -5.656)" fill="#6d7f8b"/>
        </g>
      </g>
    </g>
  </g>
</svg>
