<svg xmlns="http://www.w3.org/2000/svg" width="16.051" height="16.065" viewBox="0 0 16.051 16.065">
  <g id="Group_69" data-name="Group 69" transform="translate(0.001 0.063)">
    <path id="Path_72" data-name="Path 72" d="M16.05,7.5v.943c-.012.114-.027.224-.039.338A7.943,7.943,0,0,1,14,13.323,7.906,7.906,0,0,1,9.4,15.876c-.3.055-.609.082-.911.126H7.551c-.267-.035-.538-.059-.805-.1a7.8,7.8,0,0,1-4.34-2.2A7.844,7.844,0,0,1,.039,7.162,7.653,7.653,0,0,1,2,2.673,7.883,7.883,0,0,1,7.685-.053a7.6,7.6,0,0,1,4.426,1.119,7.911,7.911,0,0,1,3.813,5.518C15.979,6.887,16.007,7.193,16.05,7.5ZM8.023,1.184A6.78,6.78,0,1,0,14.8,7.963,6.785,6.785,0,0,0,8.023,1.184Z" transform="translate(0 0)" fill="#313131"/>
    <path id="Path_73" data-name="Path 73" d="M189.457,97.094c0,.542,0,1.088,0,1.63a.228.228,0,0,0,.106.208q1.049.783,2.093,1.571a.62.62,0,0,1-.648,1.056c-.082-.047-.153-.106-.232-.161-.754-.566-1.5-1.131-2.258-1.693a.716.716,0,0,1-.314-.613V95.488a.624.624,0,0,1,.84-.636.631.631,0,0,1,.4.628C189.457,96.018,189.457,96.556,189.457,97.094Z" transform="translate(-180.81 -91.146)" fill="#313131"/>
  </g>
</svg>
